<?xml version="1.0" standalone="no"?>
<!DOCTYPE svg PUBLIC "-//W3C//DTD SVG 20010904//EN"
 "http://www.w3.org/TR/2001/REC-SVG-20010904/DTD/svg10.dtd">
<svg version="1.0" xmlns="http://www.w3.org/2000/svg"
 width="1850.000000pt" height="1850.000000pt" viewBox="0 0 1850.000000 1850.000000"
 preserveAspectRatio="xMidYMid meet">
<metadata>
Created by potrace 1.14, written by Peter Selinger 2001-2017
</metadata>
<g transform="translate(0.000000,1850.000000) scale(0.100000,-0.100000)"
fill="#000000" stroke="none">
<path d="M3815 17653 c-611 -51 -1126 -224 -1595 -536 -750 -498 -1251 -1251
-1420 -2132 -50 -264 -52 -306 -57 -1090 l-4 -740 47 45 c133 127 4519 4445
4522 4452 3 7 -1405 9 -1493 1z"/>
<path d="M6073 15683 c-1105 -1088 -2757 -2714 -3671 -3613 l-1662 -1635 3
-3415 c3 -3125 4 -3425 20 -3536 77 -559 254 -1032 547 -1464 448 -658 1119
-1132 1883 -1330 84 -22 194 -47 245 -56 l94 -17 51 50 c62 60 6500 6393 7972
7842 566 558 1057 1034 1090 1059 88 66 222 128 330 153 80 18 115 21 227 17
115 -4 146 -9 228 -36 89 -30 195 -84 258 -132 62 -48 177 -170 218 -232 214
-320 240 -734 68 -1083 -24 -49 -67 -121 -96 -159 -30 -40 -1370 -1366 -3167
-3135 -4048 -3983 -4435 -4364 -4439 -4373 -2 -5 659 -8 1468 -8 l1472 0 283
277 c155 153 2011 1979 4124 4058 l3841 3780 -3 2960 c-4 3105 -2 2997 -48
3270 -223 1328 -1252 2396 -2569 2665 -230 47 -381 62 -626 64 l-221 1 -924
-910 c-508 -501 -2335 -2299 -4059 -3995 -1724 -1696 -3247 -3195 -3385 -3330
-245 -241 -314 -299 -425 -355 -349 -176 -762 -98 -1034 196 -328 353 -364
915 -86 1330 55 81 -188 -159 3768 3733 1860 1830 3382 3330 3382 3332 0 2
-708 4 -1574 4 l-1574 0 -2009 -1977z"/>
<path d="M15890 4235 c-861 -847 -2044 -2012 -2630 -2589 -586 -576 -1066
-1052 -1068 -1057 -5 -13 2069 -12 2223 1 962 80 1807 542 2378 1298 328 435
545 951 626 1492 36 240 42 458 39 1450 l-3 945 -1565 -1540z"/>
</g>
</svg>
