<?xml version="1.0" standalone="no"?>
<!DOCTYPE svg PUBLIC "-//W3C//DTD SVG 20010904//EN"
 "http://www.w3.org/TR/2001/REC-SVG-20010904/DTD/svg10.dtd">
<svg version="1.0" xmlns="http://www.w3.org/2000/svg"
 width="1850.000000pt" height="1850.000000pt" viewBox="0 0 1850.000000 1850.000000"
 preserveAspectRatio="xMidYMid meet">
<metadata>
Created by potrace 1.14, written by Peter Selinger 2001-2017
</metadata>
<g transform="translate(0.000000,1850.000000) scale(0.100000,-0.100000)"
fill="#000000" stroke="none">
<path d="M5014 16390 c-248 -15 -526 -72 -764 -156 -261 -94 -569 -266 -790
-442 -117 -93 -333 -308 -424 -422 -345 -433 -549 -945 -596 -1496 -7 -80 -10
-338 -8 -684 l3 -554 1908 1877 c1049 1033 1907 1880 1907 1882 0 8 -1094 3
-1236 -5z"/>
<path d="M5506 13373 l-3076 -3027 0 -2826 c0 -3067 -2 -2944 55 -3227 225
-1115 1108 -1973 2230 -2167 142 -25 139 -26 175 47 17 35 54 94 83 131 70 90
7376 7278 7447 7326 161 109 336 154 510 130 363 -50 636 -349 681 -746 24
-220 -46 -474 -179 -644 -20 -27 -1461 -1449 -3200 -3162 l-3164 -3113 771 -3
c424 -1 1118 -1 1543 0 l771 3 -98 119 c-70 85 -95 123 -89 133 5 7 1226 1211
2714 2674 1488 1464 2931 2884 3208 3157 492 485 503 494 522 477 20 -18 20
-10 20 2576 0 2245 -2 2611 -15 2723 -72 614 -329 1158 -755 1600 -420 434
-941 707 -1541 806 -68 11 -224 26 -347 32 l-223 12 -112 -111 c-1162 -1145
-7035 -6919 -7094 -6974 -91 -85 -219 -156 -333 -186 -88 -23 -263 -23 -350 1
-259 70 -474 284 -558 556 -28 93 -45 242 -38 330 17 195 94 385 208 518 35
40 1384 1372 2998 2959 1614 1588 2936 2891 2938 2895 2 4 -588 8 -1311 8
l-1314 0 -3077 -3027z"/>
<path d="M14335 4365 c-1149 -1131 -2139 -2106 -2200 -2166 l-110 -110 980 4
c1057 3 1011 1 1273 58 678 147 1290 564 1681 1144 233 347 370 695 443 1122
21 123 22 160 25 968 2 462 3 884 1 938 l-3 97 -2090 -2055z"/>
</g>
</svg>
